<?xml version="1.0" encoding="iso-8859-1"?>
<!-- Generator: Adobe Illustrator 16.0.0, SVG Export Plug-In . SVG Version: 6.00 Build 0)  -->
<!DOCTYPE svg PUBLIC "-//W3C//DTD SVG 1.1//EN" "http://www.w3.org/Graphics/SVG/1.1/DTD/svg11.dtd">
<svg version="1.1" id="Capa_1" xmlns="http://www.w3.org/2000/svg" xmlns:xlink="http://www.w3.org/1999/xlink" x="0px" y="0px"
	 width="64px" height="64px" viewBox="0 0 64 64" style="enable-background:new 0 0 64 64;" xml:space="preserve">
<g>
	<g>
		<g>
			<path d="M54.13,64h-44C2.476,64,0,61.102,0,53.309V10.06C0,2.444,2.182,0,10.13,0h34c0.463,0,0.91,0.16,1.269,0.453
				l17.686,14.351C63.546,15.184,64,15.752,64,16.351v36.958C64,60.553,62.208,64,54.13,64z M10.13,4C4.42,4,4,4.736,4,10.06v43.25
				C4,58.938,4.662,60,10.13,60h44c5.037,0,5.87-0.562,5.87-6.691V17.297L43.415,4H10.13z"/>
		</g>
		<g>
			<path d="M44.932,25H19.331C16.89,25,15,24.475,15,20.659V3c0-0.553,0.447-1,1-1s1,0.447,1,1v17.659
				C17,22.501,16.966,23,19.331,23h25.601C46.63,23,47,23,47,20.659V6c0-0.553,0.447-1,1-1s1,0.447,1,1v14.659
				C49,23.432,48.458,25,44.932,25z"/>
		</g>
		<g>
			<path d="M39,17c-1.104,0-2-0.896-2-2V9c0-1.104,0.896-2,2-2s2,0.896,2,2v6C41,16.104,40.104,17,39,17z"/>
		</g>
		<g>
			<g>
				<g>
					<path d="M24.63,39h-8c-0.553,0-1-0.447-1-1s0.447-1,1-1h8c0.553,0,1,0.447,1,1S25.183,39,24.63,39z"/>
				</g>
				<g>
					<path d="M38.63,39h-10c-0.553,0-1-0.447-1-1s0.447-1,1-1h10c0.554,0,1,0.447,1,1S39.184,39,38.63,39z"/>
				</g>
				<g>
					<path d="M46.63,39h-4c-0.553,0-1-0.447-1-1s0.447-1,1-1h4c0.554,0,1,0.447,1,1S47.184,39,46.63,39z"/>
				</g>
			</g>
			<g>
				<g>
					<path d="M20.63,44h-4c-0.553,0-1-0.447-1-1s0.447-1,1-1h4c0.553,0,1,0.447,1,1S21.183,44,20.63,44z"/>
				</g>
				<g>
					<path d="M32.63,44h-8c-0.553,0-1-0.447-1-1s0.447-1,1-1h8c0.554,0,1,0.447,1,1S33.184,44,32.63,44z"/>
				</g>
				<g>
					<path d="M46.63,44h-10c-0.553,0-1-0.447-1-1s0.447-1,1-1h10c0.554,0,1,0.447,1,1S47.184,44,46.63,44z"/>
				</g>
			</g>
			<g>
				<g>
					<path d="M26.63,50h-10c-0.553,0-1-0.447-1-1s0.447-1,1-1h10c0.553,0,1,0.447,1,1S27.183,50,26.63,50z"/>
				</g>
				<g>
					<path d="M33.63,50h-3c-0.553,0-1-0.447-1-1s0.447-1,1-1h3c0.554,0,1,0.447,1,1S34.184,50,33.63,50z"/>
				</g>
			</g>
		</g>
	</g>
</g>
<g>
</g>
<g>
</g>
<g>
</g>
<g>
</g>
<g>
</g>
<g>
</g>
<g>
</g>
<g>
</g>
<g>
</g>
<g>
</g>
<g>
</g>
<g>
</g>
<g>
</g>
<g>
</g>
<g>
</g>
</svg>
